<svg width="83" height="110" viewBox="0 0 83 110" fill="none" xmlns="http://www.w3.org/2000/svg">
<path fill-rule="evenodd" clip-rule="evenodd" d="M69.8103 42.406C56.6975 26.9948 36.6434 22.52 25.0183 32.4113L45.4643 56.4411C32.4892 44.0743 14.8038 41.1024 4.1705 50.1498L24.6088 74.1706C11.6345 61.8106 -6.04558 58.8419 -16.6766 67.8874L30.8092 123.697C41.4402 114.651 41.3407 96.7237 31.2175 81.9377L51.6563 105.959C62.2896 96.9115 62.1877 78.9784 52.0581 64.1906L72.5041 88.2204C84.1292 78.3291 82.9232 57.8173 69.8103 42.406Z" fill="#A1EDFF"/>
<mask id="mask0_4325_523" style="mask-type:alpha" maskUnits="userSpaceOnUse" x="-17" y="27" width="98" height="97">
<path fill-rule="evenodd" clip-rule="evenodd" d="M69.8103 42.4061C56.6975 26.9948 36.6434 22.52 25.0183 32.4114L45.4643 56.4411C32.4892 44.0744 14.8038 41.1024 4.1705 50.1499L24.6088 74.1707C11.6345 61.8106 -6.04558 58.8419 -16.6766 67.8874L30.8092 123.697C41.4402 114.651 41.3407 96.7238 31.2175 81.9378L51.6563 105.959C62.2896 96.9116 62.1877 78.9785 52.0581 64.1907L72.5041 88.2205C84.1292 78.3292 82.9232 57.8174 69.8103 42.4061Z" fill="#271A58"/>
</mask>
<g mask="url(#mask0_4325_523)">
<circle cx="55.8615" cy="42.6419" r="25.0281" transform="rotate(-60.3933 55.8615 42.6419)" fill="#75E5FF"/>
</g>
</svg>
